<svg version="1.1" id="Layer_1" xmlns="http://www.w3.org/2000/svg" xmlns:xlink="http://www.w3.org/1999/xlink" x="0px" y="0px"
	 width="100%" viewBox="0 0 1024 1024" enable-background="new 0 0 1024 1024" xml:space="preserve">
<path fill="#000000" opacity="1.000000" stroke="none" 
	d="
M369.294403,229.228455 
	C402.229462,212.805725 436.652496,202.499939 472.741943,197.806595 
	C492.100677,195.289032 511.634338,194.520081 531.053284,195.865372 
	C629.567749,202.690201 709.169556,245.331146 768.908936,323.962891 
	C799.981140,364.861572 818.515625,411.350128 826.520691,462.120605 
	C830.902893,489.913544 831.852905,517.833496 829.107056,545.707581 
	C822.790344,609.829712 799.654846,667.241638 758.153931,716.852722 
	C712.397095,771.551453 654.571167,806.951355 585.393860,823.813599 
	C565.501526,828.662415 545.247864,830.867615 524.722839,831.523804 
	C477.622803,833.029785 432.429016,824.873230 389.069092,806.485901 
	C346.554382,788.457153 309.646942,762.395386 278.565247,728.293396 
	C240.253998,686.259399 215.431641,637.221375 203.219421,581.667480 
	C196.586304,551.493225 195.119308,520.915100 196.976868,490.334961 
	C200.613998,430.458801 220.173126,375.834045 255.163712,327.069031 
	C285.103943,285.342468 323.026520,252.632172 369.294403,229.228455 
M481.168823,224.871201 
	C458.617706,227.371262 436.559845,232.203888 415.231964,239.900040 
	C359.775848,259.911377 314.485840,293.669495 279.576904,341.237823 
	C244.614471,388.878967 226.113663,442.368805 223.455994,501.283691 
	C222.555679,521.241882 224.081573,541.137695 227.199585,560.929199 
	C234.878967,609.674133 253.607574,653.732666 284.427704,692.144531 
	C337.661469,758.491028 407.082367,795.739929 491.806366,803.351379 
	C520.364197,805.917053 548.982361,803.855713 577.067200,797.212463 
	C644.135620,781.348145 699.400696,746.675720 742.138123,692.585876 
	C778.339722,646.768005 798.358765,594.351562 802.452026,536.203369 
	C804.571655,506.091827 802.871460,476.018097 795.628784,446.473480 
	C775.940247,366.159821 730.527161,304.729767 659.513794,262.626434 
	C604.763428,230.165298 545.247192,218.422577 481.168823,224.871201 
z"/>
<path fill="#000000" opacity="1.000000" stroke="none" 
	d="
M559.476074,688.466492 
	C540.516113,706.264526 518.702515,712.121033 494.275391,704.148743 
	C469.369812,696.020264 454.686981,678.219727 449.592224,652.509888 
	C449.007141,649.557434 448.642273,646.623352 448.643188,643.605713 
	C448.670197,554.795593 448.634705,465.985474 448.688354,377.175385 
	C448.705780,348.319855 467.772156,322.209320 495.048431,314.749268 
	C533.176514,304.321350 569.999023,325.783234 576.330688,366.661774 
	C578.813660,382.692871 576.859497,398.914856 577.331116,415.042053 
	C577.398621,417.351959 576.262207,418.346130 574.000000,418.339630 
	C566.502441,418.318146 559.004028,418.281006 551.507385,418.369324 
	C547.759583,418.413452 547.755676,415.936096 547.752319,413.316406 
	C547.738525,402.485992 547.645081,391.655029 547.726013,380.825378 
	C547.763672,375.787445 546.990173,370.906097 545.769104,366.052582 
	C542.542664,353.228699 530.974121,343.365417 517.918396,342.353058 
	C496.862274,340.720367 482.353973,352.425690 479.210083,373.324829 
	C478.611877,377.301422 478.297394,381.239655 478.298065,385.235626 
	C478.312469,469.880096 478.286865,554.524597 478.370239,639.168945 
	C478.381592,650.690613 481.271027,661.266541 490.471069,669.187805 
	C501.427795,678.621521 513.904480,680.304626 526.820557,674.745361 
	C539.830444,669.145691 547.375549,658.505249 547.510376,644.292847 
	C547.924683,600.641541 547.687683,556.984253 547.791931,513.329468 
	C547.800598,509.697418 546.539368,508.261688 542.838013,508.332214 
	C534.176880,508.497223 525.508179,508.263672 516.846863,508.423126 
	C513.251770,508.489288 511.668701,507.279114 511.765381,503.547516 
	C511.929321,497.220245 511.929474,490.881775 511.748199,484.555206 
	C511.646118,480.993103 513.224915,479.918274 516.541138,479.932281 
	C535.202454,480.011047 553.864441,480.024200 572.525696,479.942352 
	C576.167664,479.926392 577.412781,481.309937 577.406616,484.981781 
	C577.315308,539.467346 577.614990,593.955505 577.159973,648.437439 
	C577.032227,663.734436 570.455139,677.105896 559.476074,688.466492 
z"/>
<path fill="#000000" opacity="1.000000" stroke="none" 
	d="
M614.014282,354.677917 
	C618.176575,354.678650 621.888184,355.043640 625.497925,354.592682 
	C630.691711,353.943817 632.699951,356.343658 634.265686,360.974945 
	C642.307251,384.761505 650.681763,408.435516 658.936340,432.150116 
	C659.476624,433.702545 659.721558,435.397583 661.319946,436.701385 
	C663.559570,435.479614 663.777039,432.982147 664.485596,430.968170 
	C672.876648,407.117371 681.246704,383.258301 689.391846,359.322968 
	C690.557922,355.896362 692.078735,354.475769 695.722778,354.615356 
	C702.045776,354.857574 708.407043,355.004333 714.710510,354.576324 
	C720.003418,354.216888 721.037781,356.349426 721.023438,361.217896 
	C720.868896,413.542603 720.925720,465.867981 720.942749,518.193176 
	C720.956360,560.186340 720.990906,602.179504 721.025818,644.172668 
	C721.032227,651.872314 721.053284,651.912354 713.300415,651.862366 
	C707.141479,651.822693 700.983215,651.606323 694.824585,651.602173 
	C692.751770,651.600769 691.661499,650.922913 691.687134,648.772583 
	C691.700989,647.606628 691.651672,646.440063 691.651855,645.273804 
	C691.665039,576.117554 691.680298,506.961243 691.695435,437.804962 
	C691.695740,436.140533 691.695496,434.476135 691.695496,432.052643 
	C681.821106,460.559723 672.164185,488.439087 662.507202,516.318481 
	C662.014038,516.368347 661.520813,516.418274 661.027649,516.468201 
	C651.012695,488.649689 640.997742,460.831207 631.227722,433.692993 
	C631.227722,437.764313 631.225342,442.531830 631.228149,447.299377 
	C631.267212,513.622742 631.267334,579.946167 631.434692,646.269165 
	C631.446045,650.754761 629.887817,652.120300 625.658936,651.955017 
	C619.668945,651.721008 613.650635,651.655640 607.668152,651.970154 
	C603.134033,652.208618 601.562805,650.719177 601.606567,646.048279 
	C601.812439,624.053528 601.698730,602.055664 601.698486,580.058960 
	C601.697693,508.069702 601.687744,436.080475 601.705383,364.091217 
	C601.707947,353.563690 600.664856,354.776581 611.017944,354.681000 
	C611.851318,354.673309 612.684753,354.678436 614.014282,354.677917 
z"/>
<path fill="#000000" opacity="1.000000" stroke="none" 
	d="
M395.393219,643.568420 
	C385.096222,648.746643 374.606232,651.410889 363.380463,651.423889 
	C346.224640,651.443726 329.066589,651.626221 311.915344,652.005371 
	C307.239563,652.108704 305.559143,650.760315 305.565643,645.835632 
	C305.691406,550.697083 305.679504,455.558228 305.585663,360.419556 
	C305.581543,356.224487 306.570953,354.517120 311.137085,354.585419 
	C327.961853,354.837067 344.798157,354.439972 361.618896,354.803864 
	C374.851013,355.090088 388.044556,356.860199 399.310028,364.449097 
	C415.114288,375.095581 422.186829,391.003296 423.199921,409.472595 
	C423.937988,422.928162 423.885559,436.483978 423.208801,449.945953 
	C422.354706,466.935089 415.437500,481.088867 400.887146,490.836945 
	C400.061188,491.390289 399.224884,491.932739 398.440674,492.541168 
	C398.206940,492.722504 398.134460,493.111694 397.994446,493.406616 
	C398.022034,494.404938 398.800323,494.818695 399.494781,495.225525 
	C416.658539,505.280487 424.213257,520.738586 424.218048,540.121277 
	C424.222961,560.098328 425.518616,580.142517 423.215759,600.035706 
	C421.056610,618.687622 412.668549,633.874573 395.393219,643.568420 
M335.349487,578.499939 
	C335.350311,591.664673 335.442963,604.830383 335.292114,617.993408 
	C335.250549,621.620422 336.400208,623.129028 340.153656,623.003296 
	C348.145416,622.735474 356.206024,623.335815 364.132324,622.532898 
	C384.444214,620.475159 392.294098,611.730774 393.406281,593.106934 
	C394.477234,575.174072 393.923950,557.121277 393.559631,539.131897 
	C393.194702,521.111084 380.977478,509.498352 362.909943,509.288727 
	C355.578674,509.203674 348.237122,509.467499 340.916809,509.168427 
	C336.427795,508.985016 335.238312,510.744446 335.273315,515.009827 
	C335.444214,535.838623 335.350250,556.669678 335.349487,578.499939 
M374.745758,477.338684 
	C386.441010,471.899536 391.435516,461.866577 392.571594,449.826324 
	C393.792816,436.884155 393.354156,423.852020 392.606628,410.877777 
	C391.714386,395.391510 382.081085,385.981110 366.755157,384.167694 
	C358.092102,383.142609 349.462280,383.733887 340.831055,383.301453 
	C336.791473,383.099060 335.142059,384.444824 335.275513,388.697083 
	C335.536682,397.018829 335.349762,405.354614 335.349701,413.684570 
	C335.349548,434.009705 335.337372,454.334900 335.368927,474.659973 
	C335.372375,476.883240 334.725952,479.905243 338.343201,479.790375 
	C350.252563,479.412231 362.337769,481.731689 374.745758,477.338684 
z"/>
</svg>